<svg width="20" height="20" viewBox="0 0 20 20" fill="none" xmlns="http://www.w3.org/2000/svg">
<g clip-path="url(#clip0_113_39140)">
<path d="M17.3333 9.33334H10.6667V2.66666C10.6667 2.29847 10.3682 2 10 2C9.63181 2 9.33334 2.29847 9.33334 2.66666V9.33331H2.66666C2.29847 9.33334 2 9.63181 2 10C2 10.3682 2.29847 10.6667 2.66666 10.6667H9.33331V17.3333C9.33331 17.7015 9.63178 18 9.99997 18C10.3682 18 10.6666 17.7015 10.6666 17.3333V10.6667H17.3333C17.7015 10.6667 17.9999 10.3682 17.9999 10C18 9.63181 17.7015 9.33334 17.3333 9.33334Z" fill="#883DCF"/>
</g>
<defs>
<clipPath id="clip0_113_39140">
<rect width="16" height="16" fill="white" transform="translate(2 2)"/>
</clipPath>
</defs>
</svg>
