<svg width="20" height="20" viewBox="0 0 20 20" fill="none" xmlns="http://www.w3.org/2000/svg">
<g clip-path="url(#clip0_113_39261)">
<path d="M10.9426 9.99996L17.8046 3.13796C17.9261 3.01222 17.9933 2.84382 17.9917 2.66902C17.9902 2.49422 17.9201 2.32702 17.7965 2.20341C17.6729 2.0798 17.5057 2.00969 17.3309 2.00817C17.1561 2.00665 16.9877 2.07385 16.8619 2.19529L9.99995 9.05729L3.13795 2.19529C3.01221 2.07385 2.84381 2.00665 2.66902 2.00817C2.49422 2.00969 2.32701 2.0798 2.2034 2.20341C2.0798 2.32702 2.00969 2.49422 2.00817 2.66902C2.00665 2.84382 2.07384 3.01222 2.19528 3.13796L9.05728 9.99996L2.19528 16.862C2.0703 16.987 2.00009 17.1565 2.00009 17.3333C2.00009 17.5101 2.0703 17.6796 2.19528 17.8046V17.8046C2.3203 17.9296 2.48984 17.9998 2.66662 17.9998C2.84339 17.9998 3.01293 17.9296 3.13795 17.8046L9.99995 10.9426L16.8619 17.8046C16.987 17.9296 17.1565 17.9998 17.3333 17.9998C17.5101 17.9998 17.6796 17.9296 17.8046 17.8046C17.9296 17.6796 17.9998 17.5101 17.9998 17.3333C17.9998 17.1565 17.9296 16.987 17.8046 16.862L10.9426 9.99996Z" fill="#858D9D"/>
</g>
<defs>
<clipPath id="clip0_113_39261">
<rect width="16" height="16" fill="white" transform="translate(2 2)"/>
</clipPath>
</defs>
</svg>
