<svg width="25" height="25" viewBox="0 0 25 25" fill="none" xmlns="http://www.w3.org/2000/svg">
<path d="M21.5898 12.433C21.5897 14.6405 20.8107 16.7771 19.3899 18.4665C17.9692 20.156 15.9978 21.2899 13.8231 21.6686C11.6484 22.0473 9.40981 21.6464 7.50162 20.5367C5.59343 19.4269 4.13805 17.6794 3.3918 15.6019C2.64555 13.5244 2.65631 11.2502 3.42219 9.17991C4.18806 7.10959 5.65992 5.37592 7.57853 4.28425C9.49713 3.19258 11.7394 2.81294 13.9105 3.21219C16.0815 3.61144 18.042 4.76397 19.4467 6.46679C19.5408 6.58073 19.6115 6.71208 19.6548 6.85335C19.6981 6.99461 19.7131 7.14302 19.6991 7.2901C19.685 7.43718 19.6421 7.58005 19.5728 7.71055C19.5036 7.84105 19.4093 7.95663 19.2953 8.05069C19.1814 8.14475 19.05 8.21545 18.9088 8.25874C18.7675 8.30204 18.6191 8.31709 18.472 8.30303C18.3249 8.28897 18.1821 8.24608 18.0515 8.1768C17.921 8.10753 17.8055 8.01323 17.7114 7.89929C16.6747 6.64252 15.2386 5.77901 13.6424 5.45264C12.0463 5.12628 10.3865 5.35679 8.93964 6.10576C7.49282 6.85472 6.34637 8.0769 5.69136 9.5686C5.03634 11.0603 4.91233 12.7314 5.33998 14.3035C5.76763 15.8756 6.72112 17.2536 8.04154 18.2079C9.36196 19.1622 10.9696 19.6352 12.5964 19.548C14.2232 19.4608 15.7711 18.8188 16.982 17.7288C18.1928 16.6388 18.9936 15.1668 19.2508 13.558H12.2148C11.9165 13.558 11.6303 13.4395 11.4193 13.2285C11.2084 13.0176 11.0898 12.7314 11.0898 12.433C11.0898 12.1347 11.2084 11.8485 11.4193 11.6375C11.6303 11.4266 11.9165 11.308 12.2148 11.308H20.4648C20.7632 11.308 21.0494 11.4266 21.2603 11.6375C21.4713 11.8485 21.5898 12.1347 21.5898 12.433Z" fill="#91059F"/>
</svg>
